<svg width="7" height="20" viewBox="0 0 7 26" fill="none" xmlns="http://www.w3.org/2000/svg">
<path d="M0.5 23C0.5 22.2044 0.81607 21.4413 1.37868 20.8787C1.94129 20.3161 2.70435 20 3.5 20C4.29565 20 5.05871 20.3161 5.62132 20.8787C6.18393 21.4413 6.5 22.2044 6.5 23C6.5 23.7957 6.18393 24.5587 5.62132 25.1213C5.05871 25.6839 4.29565 26 3.5 26C2.70435 26 1.94129 25.6839 1.37868 25.1213C0.81607 24.5587 0.5 23.7957 0.5 23ZM0.5 13C0.5 12.2044 0.81607 11.4413 1.37868 10.8787C1.94129 10.3161 2.70435 10 3.5 10C4.29565 10 5.05871 10.3161 5.62132 10.8787C6.18393 11.4413 6.5 12.2044 6.5 13C6.5 13.7956 6.18393 14.5587 5.62132 15.1213C5.05871 15.6839 4.29565 16 3.5 16C2.70435 16 1.94129 15.6839 1.37868 15.1213C0.81607 14.5587 0.5 13.7956 0.5 13ZM0.5 3C0.5 2.20435 0.81607 1.44129 1.37868 0.878679C1.94129 0.316071 2.70435 0 3.5 0C4.29565 0 5.05871 0.316071 5.62132 0.878679C6.18393 1.44129 6.5 2.20435 6.5 3C6.5 3.79565 6.18393 4.55871 5.62132 5.12132C5.05871 5.68393 4.29565 6 3.5 6C2.70435 6 1.94129 5.68393 1.37868 5.12132C0.81607 4.55871 0.5 3.79565 0.5 3Z" fill="#F5F5F5"/>
</svg>
