<svg width="1440" height="123" viewBox="0 0 1440 123" fill="none" xmlns="http://www.w3.org/2000/svg">
<path d="M1035.39 5.33958C1050.81 11.4216 1066.24 22.993 1081.86 41.6199C1116.02 82.3506 1147.14 93.1228 1176.38 89.6126C1206.11 86.0432 1234.64 67.6852 1263.49 48.0982C1265.3 46.8705 1267.1 45.6377 1268.92 44.4038C1295.63 26.2059 1322.72 7.75542 1350.4 1.91301C1365.33 -1.23951 1380.53 -0.758653 1395.99 5.33952C1411.4 11.4215 1426.84 22.993 1442.46 41.6198C1443.7 43.1009 1443.51 45.3085 1442.02 46.5506C1440.54 47.7927 1438.34 47.5989 1437.09 46.1177C1422 28.1196 1407.47 17.3941 1393.42 11.8512C1379.41 6.32435 1365.63 5.8521 1351.84 8.7621C1325.58 14.306 1299.6 31.99 1272.46 50.4597C1270.79 51.6008 1269.1 52.745 1267.42 53.8896C1238.83 73.3026 1208.91 92.7571 1177.21 96.5627C1145.02 100.427 1111.74 88.1371 1076.5 46.1178C1061.4 28.1196 1046.87 17.3942 1032.82 11.8512C1018.81 6.32441 1005.03 5.85215 991.248 8.76216C964.983 14.3061 939.002 31.9901 911.866 50.4597C910.19 51.6009 908.509 52.7451 906.823 53.8896C878.229 73.3026 848.316 92.7571 816.619 96.5627C784.429 100.428 751.139 88.1372 715.902 46.1178C700.809 28.1197 686.276 17.3942 672.225 11.8512C658.215 6.32442 644.438 5.85217 630.652 8.76216C604.387 14.3061 578.406 31.9901 551.271 50.4598C549.594 51.6009 547.913 52.7451 546.227 53.8895C517.634 73.3025 487.721 92.757 456.024 96.5626C423.834 100.427 390.544 88.137 355.307 46.1176C340.214 28.1194 325.681 17.394 311.63 11.8511C297.62 6.32424 283.843 5.85199 270.057 8.76198C243.792 14.3059 217.811 31.99 190.675 50.4597C188.999 51.6008 187.318 52.745 185.632 53.8894C157.039 73.3024 127.126 92.757 95.4285 96.5626C63.2383 100.427 29.949 88.137 -5.28818 46.1177C-6.53024 44.6365 -6.33652 42.429 -4.85532 41.1869C-3.37424 39.9448 -1.1666 40.1386 0.0754704 41.6198C34.232 82.3505 65.3571 93.1227 94.594 89.6125C124.324 86.0431 152.85 67.6851 181.7 48.0981C183.508 46.8706 185.318 45.6379 187.129 44.4041C213.845 26.206 240.932 7.75536 268.611 1.9129C283.546 -1.23962 298.74 -0.758763 314.199 5.33941C329.616 11.4214 345.05 22.9929 360.671 41.6197C394.827 82.3504 425.952 93.1227 455.189 89.6125C484.919 86.0431 513.446 67.6851 542.296 48.0981C544.104 46.8706 545.913 45.6378 547.725 44.4039C574.441 26.206 601.527 7.75548 629.206 1.91307C644.141 -1.23944 659.335 -0.758576 674.794 5.3396C690.211 11.4216 705.646 22.9931 721.266 41.6199C755.422 82.3506 786.548 93.1229 815.785 89.6126C845.514 86.0433 874.041 67.6853 902.891 48.0982C904.699 46.8706 906.509 45.6379 908.321 44.4039C935.036 26.206 962.123 7.75549 989.802 1.91307C1004.74 -1.23944 1019.93 -0.758588 1035.39 5.33958Z" fill="#A3B18A"/>
<path d="M1035.5 30.3392C1050.93 36.4208 1066.38 47.9918 1082.01 66.6186C1116.2 107.349 1147.35 118.123 1176.62 114.613C1206.38 111.043 1234.94 92.6841 1263.81 73.0973C1265.62 71.8698 1267.43 70.637 1269.25 69.4031C1295.99 51.205 1323.1 32.7551 1350.8 26.9129C1365.75 23.7606 1380.96 24.2414 1396.43 30.3391C1411.86 36.4207 1427.31 47.9917 1442.94 66.6186C1444.19 68.0991 1443.99 70.3068 1442.51 71.5496C1441.03 72.7923 1438.82 72.5995 1437.58 71.119C1422.47 53.1208 1407.93 42.3949 1393.86 36.8516C1379.84 31.3243 1366.05 30.852 1352.25 33.7622C1325.96 39.3064 1299.95 56.9909 1272.79 75.4602C1271.11 76.6015 1269.43 77.7458 1267.74 78.8904C1239.12 98.3036 1209.18 117.757 1177.46 121.563C1145.24 125.427 1111.92 113.138 1076.65 71.119C1061.54 53.1209 1047 42.395 1032.93 36.8516C1018.91 31.3244 1005.11 30.8521 991.314 33.7623C965.024 39.3064 939.018 56.9909 911.858 75.4603C910.18 76.6016 908.497 77.7458 906.809 78.8905C878.189 98.3037 848.249 117.757 816.523 121.563C784.306 125.427 750.987 113.138 715.717 71.1191C700.61 53.1209 686.063 42.395 671.998 36.8517C657.973 31.3244 644.182 30.8521 630.382 33.7623C604.092 39.3064 578.086 56.9909 550.926 75.4602C549.247 76.6015 547.565 77.7458 545.877 78.8904C517.256 98.3036 487.317 117.757 455.592 121.563C423.374 125.427 390.055 113.138 354.785 71.1189C339.678 53.1207 325.131 42.3948 311.066 36.8515C297.042 31.3242 283.251 30.8519 269.45 33.7621C243.16 39.3063 217.154 56.9909 189.994 75.4603C188.315 76.6015 186.633 77.7457 184.945 78.8903C156.325 98.3035 126.385 117.757 94.6597 121.563C62.4425 125.427 29.1234 113.138 -6.1467 71.1189C-7.38937 69.6384 -7.19662 67.4307 -5.71603 66.1879C-4.23557 64.9452 -2.0278 65.138 -0.785126 66.6185C33.4034 107.349 64.5589 118.123 93.8261 114.612C123.585 111.043 152.139 92.684 181.016 73.0972C182.826 71.8697 184.637 70.637 186.45 69.4031C213.191 51.2049 240.302 32.755 268.006 26.9128C282.954 23.7605 298.161 24.2413 313.633 30.339C329.064 36.4206 344.512 47.9916 360.147 66.6185C394.335 107.349 425.491 118.123 454.758 114.612C484.517 111.043 513.071 92.6841 541.948 73.0973C543.758 71.8697 545.569 70.637 547.382 69.4031C574.123 51.205 601.234 32.7551 628.938 26.9129C643.886 23.7607 659.093 24.2415 674.565 30.3392C689.995 36.4208 705.444 47.9918 721.078 66.6187C755.267 107.349 786.422 118.123 815.69 114.613C845.449 111.043 874.003 92.6842 902.88 73.0974C904.69 71.8698 906.501 70.6371 908.314 69.4032C935.055 51.2051 962.166 32.7551 989.87 26.9129C1004.82 23.7606 1020.03 24.2415 1035.5 30.3392Z" fill="#A3B18A"/>
</svg>
